
<svg xmlns="http://www.w3.org/2000/svg" viewBox="0 0 570 256">
<defs>
<radialGradient id="disc" cx="40%" cy="40%" r="70%">
<stop offset="0%" stop-color="#4b4f55"/>
<stop offset="60%" stop-color="#2f3338"/>
<stop offset="100%" stop-color="#1b1e22"/>
</radialGradient>
</defs>

<circle cx="130" cy="128" r="92" fill="url(#disc)" stroke="#c9ccd1" stroke-width="3"/>

<!-- orange reflections -->
<path d="M130 128 L70 60 A80 80 0 0 1 130 48 Z" fill="#ff9f2a" opacity=".45"/>
<path d="M130 128 L200 70 A80 80 0 0 1 160 40 Z" fill="#ffc166" opacity=".35"/>
<path d="M130 128 L190 180 A80 80 0 0 1 150 210 Z" fill="#ff7a18" opacity=".35"/>
<path d="M130 128 L70 180 A80 80 0 0 1 50 140 Z" fill="#ffd9a0" opacity=".25"/>

<!-- hub -->
<circle cx="130" cy="128" r="36" fill="#2c2f34"/>
<circle cx="130" cy="128" r="24" fill="#9aa0a6"/>
<circle cx="130" cy="128" r="10" fill="#111316"/>

<!-- snowflake -->
<g transform="translate(214.64,169.4)">
<g stroke="#ffffff" stroke-width="4" stroke-linecap="round"><line x1="0" y1="0" x2="29.0" y2="0.0" /><line x1="15.950000000000001" y1="0.0" x2="22.982126278729645" y2="-4.06" /><line x1="15.950000000000001" y1="0.0" x2="22.982126278729645" y2="4.06" /><line x1="0" y1="0" x2="14.500000000000004" y2="25.11473670974872" /><line x1="7.975000000000002" y1="13.813105190361796" x2="15.007126278729645" y2="17.873105190361795" /><line x1="7.975000000000002" y1="13.813105190361796" x2="7.975000000000003" y2="21.933105190361797" /><line x1="0" y1="0" x2="-14.499999999999993" y2="25.114736709748723" /><line x1="-7.974999999999997" y1="13.813105190361798" x2="-7.974999999999996" y2="21.9331051903618" /><line x1="-7.974999999999997" y1="13.813105190361798" x2="-15.00712627872964" y2="17.873105190361798" /><line x1="0" y1="0" x2="-29.0" y2="3.5514757175273244e-15" /><line x1="-15.950000000000001" y1="1.9533116446400285e-15" x2="-22.982126278729645" y2="4.060000000000001" /><line x1="-15.950000000000001" y1="1.9533116446400285e-15" x2="-22.982126278729645" y2="-4.06" /><line x1="0" y1="0" x2="-14.500000000000012" y2="-25.114736709748712" /><line x1="-7.975000000000008" y1="-13.813105190361792" x2="-15.00712627872965" y2="-17.873105190361795" /><line x1="-7.975000000000008" y1="-13.813105190361792" x2="-7.975000000000009" y2="-21.933105190361793" /><line x1="0" y1="0" x2="14.500000000000004" y2="-25.11473670974872" /><line x1="7.975000000000002" y1="-13.813105190361796" x2="7.9750000000000005" y2="-21.933105190361797" /><line x1="7.975000000000002" y1="-13.813105190361796" x2="15.007126278729643" y2="-17.873105190361798" /></g><circle cx="29.0" cy="0.0" r="4.8" fill="#ffffff" /><circle cx="14.500000000000004" cy="25.11473670974872" r="4.8" fill="#ffffff" /><circle cx="-14.499999999999993" cy="25.114736709748723" r="4.8" fill="#ffffff" /><circle cx="-29.0" cy="3.5514757175273244e-15" r="4.8" fill="#ffffff" /><circle cx="-14.500000000000012" cy="-25.114736709748712" r="4.8" fill="#ffffff" /><circle cx="14.500000000000004" cy="-25.11473670974872" r="4.8" fill="#ffffff" />
</g>


        <text x="260" y="120" font-family="Inter,Arial,sans-serif" font-size="56" fill="#18181b" font-weight="700">fsbackup</text>
        <text x="262" y="155" font-family="Inter,Arial,sans-serif" font-size="22" fill="#52525b">frozen snapshot backup</text>
        
</svg>
